<svg id="visual" viewBox="0 0 1200 540" width="1200" height="540" xmlns="http://www.w3.org/2000/svg" xmlns:xlink="http://www.w3.org/1999/xlink" version="1.1"><path d="M0 514L10.5 513.7C21 513.3 42 512.7 63 508.3C84 504 105 496 126 492.5C147 489 168 490 189.2 496.2C210.3 502.3 231.7 513.7 252.8 514C274 514.3 295 503.7 316 502.5C337 501.3 358 509.7 379 513.2C400 516.7 421 515.3 442 511.3C463 507.3 484 500.7 505 501.3C526 502 547 510 568.2 513C589.3 516 610.7 514 631.8 515.2C653 516.3 674 520.7 695 522.5C716 524.3 737 523.7 758 519.8C779 516 800 509 821 503.8C842 498.7 863 495.3 884 497C905 498.7 926 505.3 947.2 506.5C968.3 507.7 989.7 503.3 1010.8 503.3C1032 503.3 1053 507.7 1074 510.8C1095 514 1116 516 1137 517C1158 518 1179 518 1189.5 518L1200 518L1200 541L1189.5 541C1179 541 1158 541 1137 541C1116 541 1095 541 1074 541C1053 541 1032 541 1010.8 541C989.7 541 968.3 541 947.2 541C926 541 905 541 884 541C863 541 842 541 821 541C800 541 779 541 758 541C737 541 716 541 695 541C674 541 653 541 631.8 541C610.7 541 589.3 541 568.2 541C547 541 526 541 505 541C484 541 463 541 442 541C421 541 400 541 379 541C358 541 337 541 316 541C295 541 274 541 252.8 541C231.7 541 210.3 541 189.2 541C168 541 147 541 126 541C105 541 84 541 63 541C42 541 21 541 10.5 541L0 541Z" fill="#06378d"></path><path d="M0 512L10.5 510.2C21 508.3 42 504.7 63 505C84 505.3 105 509.7 126 510.8C147 512 168 510 189.2 510C210.3 510 231.7 512 252.8 512.3C274 512.7 295 511.3 316 513.2C337 515 358 520 379 518.5C400 517 421 509 442 509.8C463 510.7 484 520.3 505 521.7C526 523 547 516 568.2 514.8C589.3 513.7 610.7 518.3 631.8 519C653 519.7 674 516.3 695 512.5C716 508.7 737 504.3 758 505C779 505.7 800 511.3 821 514.2C842 517 863 517 884 515.8C905 514.7 926 512.3 947.2 514.7C968.3 517 989.7 524 1010.8 526.7C1032 529.3 1053 527.7 1074 525.7C1095 523.7 1116 521.3 1137 522.3C1158 523.3 1179 527.7 1189.5 529.8L1200 532L1200 541L1189.5 541C1179 541 1158 541 1137 541C1116 541 1095 541 1074 541C1053 541 1032 541 1010.8 541C989.7 541 968.3 541 947.2 541C926 541 905 541 884 541C863 541 842 541 821 541C800 541 779 541 758 541C737 541 716 541 695 541C674 541 653 541 631.8 541C610.7 541 589.3 541 568.2 541C547 541 526 541 505 541C484 541 463 541 442 541C421 541 400 541 379 541C358 541 337 541 316 541C295 541 274 541 252.8 541C231.7 541 210.3 541 189.2 541C168 541 147 541 126 541C105 541 84 541 63 541C42 541 21 541 10.5 541L0 541Z" fill="#1748aa"></path><path d="M0 520L10.5 519.8C21 519.7 42 519.3 63 520C84 520.7 105 522.3 126 525.5C147 528.7 168 533.3 189.2 532.8C210.3 532.3 231.7 526.7 252.8 522.3C274 518 295 515 316 517.8C337 520.7 358 529.3 379 531.2C400 533 421 528 442 528C463 528 484 533 505 534.3C526 535.7 547 533.3 568.2 530C589.3 526.7 610.7 522.3 631.8 521.3C653 520.3 674 522.7 695 524.3C716 526 737 527 758 528C779 529 800 530 821 528.2C842 526.3 863 521.7 884 522.3C905 523 926 529 947.2 530.8C968.3 532.7 989.7 530.3 1010.8 527.7C1032 525 1053 522 1074 520C1095 518 1116 517 1137 519C1158 521 1179 526 1189.5 528.5L1200 531L1200 541L1189.5 541C1179 541 1158 541 1137 541C1116 541 1095 541 1074 541C1053 541 1032 541 1010.8 541C989.7 541 968.3 541 947.2 541C926 541 905 541 884 541C863 541 842 541 821 541C800 541 779 541 758 541C737 541 716 541 695 541C674 541 653 541 631.8 541C610.7 541 589.3 541 568.2 541C547 541 526 541 505 541C484 541 463 541 442 541C421 541 400 541 379 541C358 541 337 541 316 541C295 541 274 541 252.8 541C231.7 541 210.3 541 189.2 541C168 541 147 541 126 541C105 541 84 541 63 541C42 541 21 541 10.5 541L0 541Z" fill="#245ac7"></path></svg>