<svg id="visual" viewBox="0 0 1200 540" width="1200" height="540" xmlns="http://www.w3.org/2000/svg" xmlns:xlink="http://www.w3.org/1999/xlink" version="1.1"><path d="M0 24L10.5 24.3C21 24.7 42 25.3 63 29.7C84 34 105 42 126 45.5C147 49 168 48 189.2 41.8C210.3 35.7 231.7 24.3 252.8 24C274 23.7 295 34.3 316 35.5C337 36.7 358 28.3 379 24.8C400 21.3 421 22.7 442 26.7C463 30.7 484 37.3 505 36.7C526 36 547 28 568.2 25C589.3 22 610.7 24 631.8 22.8C653 21.7 674 17.3 695 15.5C716 13.7 737 14.3 758 18.2C779 22 800 29 821 34.2C842 39.3 863 42.7 884 41C905 39.3 926 32.7 947.2 31.5C968.3 30.3 989.7 34.7 1010.8 34.7C1032 34.7 1053 30.3 1074 27.2C1095 24 1116 22 1137 21C1158 20 1179 20 1189.5 20L1200 20L1200 0L1189.5 0C1179 0 1158 0 1137 0C1116 0 1095 0 1074 0C1053 0 1032 0 1010.8 0C989.7 0 968.3 0 947.2 0C926 0 905 0 884 0C863 0 842 0 821 0C800 0 779 0 758 0C737 0 716 0 695 0C674 0 653 0 631.8 0C610.7 0 589.3 0 568.2 0C547 0 526 0 505 0C484 0 463 0 442 0C421 0 400 0 379 0C358 0 337 0 316 0C295 0 274 0 252.8 0C231.7 0 210.3 0 189.2 0C168 0 147 0 126 0C105 0 84 0 63 0C42 0 21 0 10.5 0L0 0Z" fill="#06378d"></path><path d="M0 26L10.5 27.8C21 29.7 42 33.3 63 33C84 32.7 105 28.3 126 27.2C147 26 168 28 189.2 28C210.3 28 231.7 26 252.8 25.7C274 25.3 295 26.7 316 24.8C337 23 358 18 379 19.5C400 21 421 29 442 28.2C463 27.3 484 17.7 505 16.3C526 15 547 22 568.2 23.2C589.3 24.3 610.7 19.7 631.8 19C653 18.3 674 21.7 695 25.5C716 29.3 737 33.7 758 33C779 32.3 800 26.7 821 23.8C842 21 863 21 884 22.2C905 23.3 926 25.7 947.2 23.3C968.3 21 989.7 14 1010.8 11.3C1032 8.7 1053 10.3 1074 12.3C1095 14.3 1116 16.7 1137 15.7C1158 14.7 1179 10.3 1189.5 8.2L1200 6L1200 0L1189.5 0C1179 0 1158 0 1137 0C1116 0 1095 0 1074 0C1053 0 1032 0 1010.8 0C989.7 0 968.3 0 947.2 0C926 0 905 0 884 0C863 0 842 0 821 0C800 0 779 0 758 0C737 0 716 0 695 0C674 0 653 0 631.8 0C610.7 0 589.3 0 568.2 0C547 0 526 0 505 0C484 0 463 0 442 0C421 0 400 0 379 0C358 0 337 0 316 0C295 0 274 0 252.8 0C231.7 0 210.3 0 189.2 0C168 0 147 0 126 0C105 0 84 0 63 0C42 0 21 0 10.5 0L0 0Z" fill="#1748aa"></path><path d="M0 18L10.5 18.2C21 18.3 42 18.7 63 18C84 17.3 105 15.7 126 12.5C147 9.3 168 4.7 189.2 5.2C210.3 5.7 231.7 11.3 252.8 15.7C274 20 295 23 316 20.2C337 17.3 358 8.7 379 6.8C400 5 421 10 442 10C463 10 484 5 505 3.7C526 2.3 547 4.7 568.2 8C589.3 11.3 610.7 15.7 631.8 16.7C653 17.7 674 15.3 695 13.7C716 12 737 11 758 10C779 9 800 8 821 9.8C842 11.7 863 16.3 884 15.7C905 15 926 9 947.2 7.2C968.3 5.3 989.7 7.7 1010.8 10.3C1032 13 1053 16 1074 18C1095 20 1116 21 1137 19C1158 17 1179 12 1189.5 9.5L1200 7L1200 0L1189.5 0C1179 0 1158 0 1137 0C1116 0 1095 0 1074 0C1053 0 1032 0 1010.8 0C989.7 0 968.3 0 947.2 0C926 0 905 0 884 0C863 0 842 0 821 0C800 0 779 0 758 0C737 0 716 0 695 0C674 0 653 0 631.8 0C610.7 0 589.3 0 568.2 0C547 0 526 0 505 0C484 0 463 0 442 0C421 0 400 0 379 0C358 0 337 0 316 0C295 0 274 0 252.8 0C231.7 0 210.3 0 189.2 0C168 0 147 0 126 0C105 0 84 0 63 0C42 0 21 0 10.5 0L0 0Z" fill="#245ac7"></path></svg>